<svg xmlns="http://www.w3.org/2000/svg" xmlns:bx="https://boxy-svg.com" width="191.121" height="281.642" viewBox="-38.324 -109.673 191.121 281.642"><defs><style bx:fonts="Open Sans">@import url(https://fonts.googleapis.com/css2?family=Open+Sans%3Aital%2Cwght%400%2C300%3B0%2C400%3B0%2C500%3B0%2C600%3B0%2C700%3B0%2C800%3B1%2C300%3B1%2C400%3B1%2C500%3B1%2C600%3B1%2C700%3B1%2C800&amp;display=swap);</style></defs><g id="garbage-collection" fill="none" fill-rule="evenodd" stroke="none" stroke-width="1" transform="matrix(1.6492669582366946, 0, 0, 1.6492669582366946, -81.42222595214844, 62.8305015563965)"><g id="memory-user-john-admin.svg" transform="matrix(1, 0, 0, 1, -1.759865, 4.803441)"><text id="user" x="31.917" y="-40.191" transform="matrix(0.735667, 0, 0, 0.753868, 7.56361, 10.722544)" style="fill:#af6e24;font-family:'Open Sans';font-size:14px;font-weight:600;white-space:pre">user</text><path id="Rectangle-4" fill="#FBF2EC" stroke="#DBAF88" stroke-width="2" d="M 39.02 4.206 L 125.8 4.206 L 125.8 48.227 L 39.02 48.227 L 39.02 4.206 Z"/><text id="name:-&quot;John&quot;" x="54.086" y="34.58" style="fill:#af6e24;font-family:'Open Sans';font-size:9px;font-weight:500;white-space:pre">name: &quot;John&quot;</text><text id="Object" x="64.679" y="23.487" style="fill:#af6e24;font-family:'Open Sans';font-size:10.5px;font-weight:500;white-space:pre">Object</text><path id="Rectangle-1" fill="#FBF2EC" stroke="#DBAF88" stroke-width="2" d="M 36.398 -102.608 L 129.398 -102.608 L 129.398 -76.608 L 36.398 -76.608 L 36.398 -102.608 Z"/><text id="&lt;global&gt;" x="59.233" y="-86.001" style="fill:#af6e24;font-family:'Open Sans';font-size:10.6px;font-weight:500;white-space:pre">&lt;global&gt;</text><path d="M 105.999 1.57 L 113.013 13.895 L 98.985 13.895 L 105.999 1.57 Z" transform="matrix(1, 0, 0, -1, 0, 0)" bx:shape="triangle 98.985 1.57 14.028 12.325 0.5 0 1@df7d9fa9" style="fill-rule:nonzero;fill:#ac4343"/><g><rect width="1.99" height="5.009" x="105.024" y="-69.436" style="paint-order:stroke;stroke:#35518a;stroke-width:0;fill:#ac4343"/><rect width="1.99" height="5.009" x="105.014" y="-59.02" style="paint-order:stroke;stroke:#35518a;stroke-width:0;fill:#ac4343"/><rect width="1.99" height="5.009" x="105.014" y="-48.877" style="paint-order:stroke;stroke:#35518a;stroke-width:0;fill:#ac4343"/></g><g transform="matrix(1, 0, 0, 1.024052, -0.03572, 31.45084)"><rect width="1.99" height="5.009" x="105.024" y="-69.051" style="paint-order:stroke;stroke:#35518a;stroke-width:0;fill:#ac4343"/><rect width="1.99" height="5.009" x="105.014" y="-59.02" style="paint-order:stroke;stroke:#35518a;stroke-width:0;fill:#ac4343"/><rect width="1.99" height="5.009" x="105.014" y="-48.877" style="paint-order:stroke;stroke:#35518a;stroke-width:0;fill:#ac4343"/></g><g transform="matrix(1, 0, 0, 1, -9.930843, 12.564639)"><path d="M 66.874 14.118 L 73.888 26.443 L 59.86 26.443 L 66.874 14.118 Z" transform="matrix(1, 0, 0, -1, 0, 0)" bx:shape="triangle 59.86 14.118 14.028 12.325 0.5 0 1@9d4d6098" style="fill-rule:nonzero;fill:#c06334"/><rect width="2.056" height="55.884" x="65.833" y="-81.984" style="paint-order:stroke;stroke:#35518a;stroke-width:0;fill:#c06334"/></g><text id="text-1" x="31.917" y="-40.191" transform="matrix(0.735667, 0, 0, 0.753868, 87.03299, 10.790039)" style="fill:#ac4343;font-family:'Open Sans';font-size:14px;font-weight:600;white-space:pre">admin</text></g></g></svg>