<svg xmlns="http://www.w3.org/2000/svg" xmlns:svg="http://www.w3.org/2000/svg" xmlns:xlink="http://www.w3.org/1999/xlink" id="svg3395" width="352" height="168" version="1.1" xml:space="preserve"><metadata id="metadata3773"/><defs id="defs3400"><linearGradient id="a"><stop id="stop3403" offset="0" stop-color="#606eda"/><stop id="stop3405" offset="1" stop-color="#021db2"/></linearGradient><linearGradient id="b"><stop id="stop3408" offset="0" stop-color="#e59290"/><stop id="stop3410" offset="1" stop-color="#e99890"/></linearGradient><linearGradient id="c"><stop id="stop3413" offset="0" stop-color="#c0544f"/><stop id="stop3415" offset="1" stop-color="#d08481"/></linearGradient><linearGradient id="d"><stop id="stop3418" offset="0" stop-color="#ffa801" stop-opacity="0"/><stop id="stop3420" offset="1" stop-color="#f0fb3d"/></linearGradient><linearGradient id="e"><stop id="stop3423" offset="0" stop-color="#ffbd00" stop-opacity=".65"/><stop id="stop3425" offset="1" stop-color="#fff" stop-opacity=".91"/></linearGradient><linearGradient id="f"><stop id="stop3428" offset="0" stop-color="#00d600" stop-opacity="0"/><stop id="stop3430" offset="1" stop-color="#d8fc7b" stop-opacity=".81"/></linearGradient><linearGradient id="g"><stop id="stop3433" offset="0" stop-color="#00ba00"/><stop id="stop3435" offset="1" stop-color="#fff" stop-opacity=".91"/></linearGradient><linearGradient id="h"><stop id="stop3438" offset="0" stop-color="#00a104"/><stop id="stop3440" offset="1" stop-color="#00c605"/></linearGradient><linearGradient id="i"><stop id="stop3443" offset="0" stop-color="red" stop-opacity="0"/><stop id="stop3445" offset="1" stop-color="#f0cb68" stop-opacity=".71"/></linearGradient><linearGradient id="j"><stop id="stop3448" offset="0" stop-color="#e60000" stop-opacity=".65"/><stop id="stop3450" offset="1" stop-color="#fff" stop-opacity=".91"/></linearGradient><linearGradient id="k"><stop id="stop3453" offset="0" stop-color="#a10000"/><stop id="stop3455" offset="1" stop-color="#c60000"/></linearGradient><linearGradient id="l"><stop id="stop3458" offset="0" stop-color="#d7687d"/><stop id="stop3460" offset="1" stop-color="#b21402"/></linearGradient><radialGradient id="z" cx="0" cy="0" r="1" fx="0" fy="0" gradientTransform="matrix(18,0,0,-18,680,341)" gradientUnits="userSpaceOnUse" spreadMethod="pad"><stop id="stop3463" offset="0"/><stop id="stop3465" offset="1" stop-opacity="0"/></radialGradient><radialGradient id="A" cx="0" cy="0" r="1" fx="0" fy="0" gradientTransform="matrix(9,0,0,9,304,36)" gradientUnits="userSpaceOnUse" spreadMethod="pad" xlink:href="#z"/><linearGradient id="m" x1="0" x2="24" y1="0" y2="0" gradientTransform="matrix(0,-0.58333333,-0.58333333,0,118,110)" gradientUnits="userSpaceOnUse" xlink:href="#l"/><linearGradient id="n" x1="96.5" x2="109.5" y1="103" y2="103" gradientTransform="matrix(0,1,-1,0,206,0)" gradientUnits="userSpaceOnUse" xlink:href="#b"/><linearGradient id="o" x1="113" x2="127" y1="104" y2="104" gradientTransform="matrix(0,1,-1,0,207,-17)" gradientUnits="userSpaceOnUse" xlink:href="#c"/><linearGradient id="p" x1="0" x2="24" y1="0" y2="0" gradientTransform="matrix(0,-0.41666666,-0.41666666,0,218,106)" gradientUnits="userSpaceOnUse" xlink:href="#l"/><linearGradient id="q" x1="113" x2="127" y1="104" y2="104" gradientTransform="matrix(0.71428571,0,0,0.71428571,132.28571,37.714287)" gradientUnits="userSpaceOnUse" xlink:href="#a"/><linearGradient id="r" x1="227.875" x2="235.125" y1="103.156" y2="103.156" gradientTransform="matrix(0,1.3793103,-1.3008129,0,363.08462,-218.35335)" gradientUnits="userSpaceOnUse" xlink:href="#k"/><linearGradient id="s" x1="227.875" x2="235.125" y1="103.156" y2="103.156" gradientTransform="matrix(0,-0.62931035,0.92682926,0,133.46895,244.52849)" gradientUnits="userSpaceOnUse" xlink:href="#j"/><linearGradient id="t" x1="227.875" x2="235.125" y1="103.156" y2="103.156" gradientTransform="matrix(0,0.43965518,0.78048781,0,148.48744,2.1206316)" gradientUnits="userSpaceOnUse" xlink:href="#i"/><linearGradient id="u" x1="227.875" x2="235.125" y1="103.156" y2="103.156" gradientTransform="matrix(-0.01506784,1.3792098,-1.3007182,-0.01421029,377.66542,-216.8212)" gradientUnits="userSpaceOnUse" xlink:href="#h"/><linearGradient id="v" x1="227.875" x2="235.125" y1="103.156" y2="103.156" gradientTransform="matrix(0.00687469,-0.62926454,0.92676181,0.01012483,142.86511,243.44332)" gradientUnits="userSpaceOnUse" xlink:href="#g"/><linearGradient id="w" x1="227.875" x2="235.125" y1="103.156" y2="103.156" gradientTransform="matrix(-0.00480288,0.43962318,0.780431,0.00852617,160.60265,1.1603253)" gradientUnits="userSpaceOnUse" xlink:href="#f"/><linearGradient id="x" x1="227.875" x2="235.125" y1="103.156" y2="103.156" gradientTransform="matrix(0,-0.62931035,0.92682926,0,155.46895,244.52849)" gradientUnits="userSpaceOnUse" xlink:href="#e"/><linearGradient id="y" x1="227.875" x2="235.125" y1="103.156" y2="103.156" gradientTransform="matrix(0,0.43965518,0.78048781,0,170.44325,2.076437)" gradientUnits="userSpaceOnUse" xlink:href="#d"/><linearGradient id="linearGradient3239" x1="0" x2="24" y1="0" y2="0" gradientTransform="matrix(0,-0.41666666,-0.41666666,0,249.99999,117)" gradientUnits="userSpaceOnUse" xlink:href="#l-0"/><linearGradient id="l-0"><stop id="stop3458-8" offset="0" stop-color="#d7687d"/><stop id="stop3460-8" offset="1" stop-color="#b21402"/></linearGradient></defs><path id="path3481" d="M 57,12 53.5,8 39,8 l 0,8 14.5,0"/><path id="path3483" d="M 25,36 21.36,32 19.57,32 14,40 21.36,40 25,36 z"/><path id="path3485" d="M 7,32 7,40 9.05,40 14,32 7,32 z"/><path id="path3487" d="M 9.67,44.55 8.08,43.23 18.84,27.45 20.43,28.77 9.67,44.55 z"/><path id="path3489" d="m 16,5 0,2 c -2.76,0 -5,2.24 -5,5 0,2.76 2.24,5 5,5 2.76,0 5,-2.24 5,-5 l -1.84,0 c -0.04,1.72 -1.43,3.09 -3.16,3.09 -1.75,0 -3.16,-1.4 -3.16,-3.15 0,-1.75 1.41,-3.16 3.16,-3.16 L 16,11 20.5,8 16,5 z"/><path id="path3491" d="m 53,37 -10,0 0,-5 10,0 0,5 z m -12,5 14,0 0,-12 -14,0 0,12 z"/><path id="path3493" d="m 10,57 -2,0 0,9 11,0 0,-2 -9,0 z"/><path id="path3495" d="m 13,56 7,0 0,5 -7,0 z m -2,-2 0,9 11,0 0,-9 z"/><path id="path3505" d="m 80.44,16.94 c -2.48,0 -4.5,-2.02 -4.5,-4.5 0,-0.88 0.26,-1.7 0.69,-2.39 l 6.2,6.2 c -0.69,0.44 -1.51,0.69 -2.39,0.69 m 4.5,-4.5 c 0,0.88 -0.26,1.7 -0.69,2.39 l -6.2,-6.2 c 0.69,-0.44 1.51,-0.69 2.39,-0.69 2.48,0 4.5,2.02 4.5,4.5 M 80.5,6 C 76.91,6 74,8.91 74,12.5 74,16.09 76.91,19 80.5,19 84.09,19 87,16.09 87,12.5 87,8.91 84.09,6 80.5,6"/><path id="path3507" d="m 117,65 -10,0 0,-10 10,0 0,10 z"/><path id="path3509" d="M 149,8.33 147.67,7 144,10.67 140.33,7 139,8.33 142.67,12 139,15.67 140.33,17 144,13.33 147.67,17 149,15.67 145.33,12 149,8.33 z"/><path id="path3511" d="m 44,59 2,3 0,4 4,0 0,-4 2,-3 z" style="opacity:.5;fill:#424242"/><path id="path3513" d="m 46.5,65.23 c 0.32,0.13 0.84,0.24 1.47,0.24 0.59,0 1.14,-0.1 1.53,-0.26 l 0,-3.93 4,-4.57 0,-0.19 -11,0 0,0.22 4,4.57 0,3.93 z M 47.97,67 C 46.81,66.91 45.82,66.71 45,66.01 l 0,-4.12 -4,-4.57 0,-2.32 14,0 0,2.35 -4,4.57 0,4.13 c -0.92,0.67 -2.1,0.94 -3.03,0.95"/><path id="path3515" d="M 86,60 76,55 76,65"/><path id="path3517" d="m 153,57 -11,0 0,-2 11,0 0,2 z" style="opacity:.2"/><path id="path3519" d="m 142,57 -6,0 0,-2 6,0 0,2 z"/><path id="path3521" d="m 145,60 -6,0 0,-2 6,0 0,2 z"/><path id="path3523" d="m 150,63 -6,0 0,-2 6,0 0,2 z"/><path id="path3525" d="m 152,66 -6,0 0,-2 6,0 0,2 z"/><path id="path3527" d="m 170,67 -2,0 0,-9 2,0 0,9 z"/><path id="path3529" d="m 173,67 -2,0 0,-11 2,0 0,11 z"/><path id="path3531" d="m 176,67 -2,0 0,-13 2,0 0,13 z"/><path id="path3533" d="m 179,67 -2,0 0,-4 2,0 0,4 z"/><path id="path3535" d="m 182,67 -2,0 0,-9 2,0 0,9 z"/><path id="path3537" d="m 185,67 -2,0 0,-11 2,0 0,11 z"/><path id="path3539" d="m 208,57 -10,0 0,-2 10,0 0,2 z"/><path id="path3541" d="m 217,57 -5,0 0,-2 5,0 0,2 z"/><path id="path3543" d="m 200,61 -2,0 0,-2 2,0 0,2 z"/><path id="path3545" d="m 213,61 -10,0 0,-2 10,0 0,2 z"/><path id="path3547" d="m 217,61 -2,0 0,-2 2,0 0,2 z"/><path id="path3549" d="m 205,65 -7,0 0,-2 7,0 0,2 z"/><path id="path3551" d="m 217,65 -8,0 0,-2 8,0 0,2 z"/><path id="path3553" d="m 274,64 -7,0 0,-8 7,0 0,8 z m -9,2 14,0 0,-12 -14,0 0,12 z"/><path id="path3555" d="m 298,12 c 0,3.31 2.69,6 6,6 3.31,0 6,-2.69 6,-6 0,-3.31 -2.69,-6 -6,-6 -3.31,0 -6,2.69 -6,6"/><path id="path3557" d="m 295,36 c 0,4.97 4.03,9 9,9 l 0,0 c 4.97,0 9,-4.03 9,-9 l 0,0 c 0,-4.97 -4.03,-9 -9,-9 l 0,0 c -4.97,0 -9,4.03 -9,9" style="fill:url(#A)"/><path id="path3559" d="m 298,36 c 0,3.31 2.69,6 6,6 3.31,0 6,-2.69 6,-6 0,-3.31 -2.69,-6 -6,-6 -3.31,0 -6,2.69 -6,6"/><path id="path3561" d="m 239,30 c -2.76,0 -5,2.24 -5,5 0,2.76 2.24,5 5,5 1.03,0 1.96,-0.31 2.75,-0.84 L 245.56,43 247,41.56 243.19,37.75 C 243.71,36.96 244,36.02 244,35 c 0,-2.76 -2.24,-5 -5,-5 z m 0,2 c 1.66,0 3,1.34 3,3 0,1.66 -1.34,3 -3,3 -1.66,0 -3,-1.34 -3,-3 0,-1.66 1.34,-3 3,-3 z"/><path id="path3563" stroke-miterlimit="10" d="m 233.73,63.76 5.25,-3.23 5.32,2.23 4.95,-4.03" style="fill:none;stroke:#000;stroke-width:1.48000002;stroke-miterlimit:10"/><path id="path3565" d="m 231,67 0,-13 -1,0 0,14 21,0 0,-1 z"/><path id="path3567" d="m 237,11 -4,0 0,-4 4,0 0,4 z"/><path id="path3569" d="m 247,9 -9,0 0,-2 9,0 0,2 z"/><path id="path3571" d="m 247,11 -9,0 0,-1 9,0 0,1 z"/><path id="path3573" d="m 247,15 -9,0 0,-2 9,0 0,2 z"/><path id="path3575" d="m 237,17 -4,0 0,-4 4,0 0,4 z"/><path id="path3577" d="m 247,17 -9,0 0,-1 9,0 0,1 z"/><path id="path3579" d="m 176,38.13 c -1.18,0 -2.13,-0.96 -2.13,-2.13 0,-1.18 0.96,-2.13 2.13,-2.13 1.18,0 2.13,0.96 2.13,2.13 0,1.18 -0.96,2.13 -2.13,2.13 m 8,-3.73 -2.93,-0.53 1.72,-2.39 -2.26,-2.26 -2.46,1.79 -0.47,-3 -3.2,0 -0.4,3.13 -2.53,-1.92 -2.26,2.26 1.99,2.59 -3.2,0.33 0,3.2 3.33,0.33 -2.12,2.59 2.26,2.26 2.53,-2.12 0.4,3.33 3.2,0 0.4,-3.2 2.53,1.99 2.26,-2.26 -1.79,-2.45 3,-0.47 0,-3.2 z"/><path id="path3581" d="m 268.01,35.99 c 0.61,0.28 1.07,0.9 1.07,1.58 0.11,0.85 -0.05,1.72 0.12,2.57 0.27,0.54 1,0.28 1.43,0.55 0.49,0.24 0.48,1.01 -0.06,1.18 -0.56,0.22 -1.18,0.08 -1.74,-0.05 -0.71,-0.2 -1.41,-0.72 -1.5,-1.5 -0.18,-0.89 0.01,-1.8 -0.16,-2.68 -0.22,-0.64 -0.94,-0.9 -1.57,-0.93 -0.58,-0.1 -0.83,-0.94 -0.35,-1.3 0.51,-0.35 1.26,-0.14 1.69,-0.66 0.44,-0.48 0.29,-1.18 0.32,-1.78 0,-0.81 -0.02,-1.77 0.65,-2.34 0.66,-0.54 1.58,-0.71 2.41,-0.63 0.63,0 0.98,0.87 0.4,1.22 -0.44,0.37 -1.2,0.06 -1.51,0.65 -0.14,0.56 -0.05,1.15 -0.07,1.73 -0.01,0.75 -0.05,1.64 -0.72,2.13 -0.12,0.1 -0.26,0.19 -0.4,0.26"/><path id="path3583" d="m 276.98,35.99 c -0.67,-0.3 -1.08,-1.02 -1.08,-1.75 -0.07,-0.76 0.03,-1.52 -0.06,-2.28 -0.24,-0.58 -0.98,-0.4 -1.46,-0.59 -0.59,-0.24 -0.48,-1.18 0.14,-1.31 0.73,-0.15 1.52,-0.01 2.18,0.32 0.56,0.28 0.95,0.86 0.99,1.48 0.13,0.83 -0.03,1.68 0.13,2.5 0.2,0.68 0.94,0.83 1.54,0.9 0.56,0.07 0.86,0.8 0.46,1.21 -0.44,0.46 -1.2,0.2 -1.65,0.66 -0.51,0.46 -0.4,1.21 -0.4,1.83 -0.03,0.78 0.06,1.69 -0.52,2.3 -0.74,0.65 -1.8,0.86 -2.75,0.68 -0.52,-0.16 -0.69,-1.01 -0.15,-1.25 0.44,-0.23 1.02,-0.08 1.41,-0.45 0.26,-0.45 0.09,-0.98 0.14,-1.47 0.01,-0.76 -0.07,-1.63 0.43,-2.26 0.18,-0.21 0.42,-0.37 0.66,-0.51"/><path id="path3585" d="m 275,15 -2,0 0,-6 2,0 z m -4,0 -2,0 0,-6 2,0 z m 4,-10 -6,0 -4,4 0,6 4,4 6,0 4,-4.12 0,-5.88 z"/><path id="path3591" d="m 139.5,33 9,0 -1.5,10 -6,0"/><path id="path3593" d="m 147.5,30 -2,0 0,-1 -3,0 0,1 -2,0 c -0.55,0 -1,0.48 -1,1 l 0,1 1,0 7,0 1,0 0,-1 c 0,-0.52 -0.45,-1 -1,-1"/><path id="path3595" d="m 317,69 0,-5 -5,5 5,0 z"/><path id="path3597" d="m 23,84 -8,-5 0,10"/><path id="path3599" d="m 13,89 -3,0 0,-10 3,0 0,10 z"/><path id="path3601" d="m 47,88 -3,0 0,-8 3,0 0,8 z"/><path id="path3603" d="m 53,88 -3,0 0,-8 3,0 0,8 z"/><path id="path3605" d="m 78.5,89 c 0,1.1 0.9,2 2,2 1.1,0 2,-0.9 2,-2 0,-1.1 -0.9,-2 -2,-2 -1.1,0 -2,0.9 -2,2"/><path id="path3607" d="m 79,78 0,4 -3,0 4.5,4 4.5,-4 -3,0 0,-4 -3,0 z"/><path id="path3609" d="m 110.5,89 c 0,1.1 0.9,2 2,2 1.1,0 2,-0.9 2,-2 0,-1.1 -0.9,-2 -2,-2 -1.1,0 -2,0.9 -2,2"/><path id="path3611" d="m 112.5,78 -4.5,4 3,0 0,4 3,0 0,-4 3,0 -4.5,-4 z"/><path id="path3613" d="m 142,86.5 c 0,1.1 0.9,2 2,2 1.1,0 2,-0.9 2,-2 0,-1.1 -0.9,-2 -2,-2 -1.1,0 -2,0.9 -2,2"/><path id="path3615" d="m 137.25,87.03 c 2.55,-8.43 11.4,-8.73 13.94,0" style="fill:none;stroke:#000;stroke-width:2.5"/><path id="path3617" d="m 151.68,89 -4.54,-2.76 6.68,-2.1"/><path id="path3619" d="m 12,102 -7,-4 0,8"/><path id="path3621" d="m 24,106 4,-7 -8,0"/><path id="path3623" d="m 8,111 4,7 -8,0"/><path id="path3625" d="m 54,105 0,7 -10,0 0,-7 z m 1,8 0,-11 -12,0 0,11 z"/><rect id="rect3627" width="12" height="3" x="73" y="110" ry="0" style="opacity:.81999984"/><rect id="rect3629" width="14" height="12" x="168.5" y="78.5" style="fill:none;stroke:#000"/><path id="path3631" d="m 180,84.5 -5,-3.25 0,6.5"/><rect id="rect3633" width="1" height="13" x="172" y="78"/><rect id="rect3635" width="14" height="12" x="200.5" y="78.5" style="fill:none;stroke:#000"/><path id="path3637" d="m 207,84.5 5,-3.25 0,6.5"/><rect id="rect3639" width="1" height="13" x="204" y="78"/><rect id="rect3641" width="14" height="12" x="264.5" y="78.5" style="fill:none;stroke:#000"/><path id="path3643" d="m 272,84.5 -5,-3.25 0,6.5"/><rect id="rect3645" width="1" height="13" x="274" y="78"/><rect id="rect3647" width="14" height="12" x="296.5" y="78.5" style="fill:none;stroke:#000"/><path id="path3649" d="m 299,84.5 5,-3.25 0,6.5"/><rect id="rect3651" width="1" height="13" x="306" y="78"/><path id="path3653" d="m 118,96 c -3.87,0 -7,3.13 -7,7 0,3.87 3.13,7 7,7 3.87,0 7,-3.13 7,-7 0,-3.87 -3.13,-7 -7,-7" style="fill:url(#m)"/><path id="path3655" d="m 111.5,103 c 0,3.59 2.91,6.5 6.5,6.5 3.59,0 6.5,-2.91 6.5,-6.5 0,-3.59 -2.91,-6.5 -6.5,-6.5 -3.59,0 -6.5,2.91 -6.5,6.5" style="fill:#f27d82"/><path id="path3657" d="m 121.5,100.93 -0.93,-0.93 -2.57,2.57 -2.57,-2.57 -0.93,0.93 2.57,2.57 -2.57,2.57 0.93,0.93 2.57,-2.57 2.57,2.57 0.93,-0.93 -2.57,-2.57 2.57,-2.57 z" style="fill-opacity:.36000001"/><path id="path3659" d="m 121.5,100.43 -0.93,-0.93 -2.57,2.57 -2.57,-2.57 -0.93,0.93 2.57,2.57 -2.57,2.57 0.93,0.93 2.57,-2.57 2.57,2.57 0.93,-0.93 -2.57,-2.57 2.57,-2.57 z" style="fill:#fff"/><path id="path3661" d="m 138.5,100.93 -0.93,-0.93 -2.57,2.57 -2.57,-2.57 -0.93,0.93 2.57,2.57 -2.57,2.57 0.93,0.93 2.57,-2.57 2.57,2.57 0.93,-0.93 -2.57,-2.57 2.57,-2.57 z" style="fill-opacity:.23999999"/><path id="path3663" d="m 138.5,100.43 -0.93,-0.93 -2.57,2.57 -2.57,-2.57 -0.93,0.93 2.57,2.57 -2.57,2.57 0.93,0.93 2.57,-2.57 2.57,2.57 0.93,-0.93 -2.57,-2.57 2.57,-2.57 z" style="fill:#676767"/><path id="path3665" d="m 103,110 c 3.87,0 7,-3.13 7,-7 0,-3.87 -3.13,-7 -7,-7 -3.87,0 -7,3.13 -7,7 0,3.87 3.13,7 7,7" style="fill:url(#o)"/><path id="path3667" d="m 103,96.5 c -3.59,0 -6.5,2.91 -6.5,6.5 0,3.59 2.91,6.5 6.5,6.5 3.59,0 6.5,-2.91 6.5,-6.5 0,-3.59 -2.91,-6.5 -6.5,-6.5" style="fill:url(#n)"/><path id="path3669" d="m 106.5,100.93 -0.93,-0.93 -2.57,2.57 -2.57,-2.57 -0.93,0.93 2.57,2.57 -2.57,2.57 0.93,0.93 2.57,-2.57 2.57,2.57 0.93,-0.93 -2.57,-2.57 2.57,-2.57 z" style="fill:#993c35"/><path id="path3671" d="m 106.5,100.43 -0.93,-0.93 -2.57,2.57 -2.57,-2.57 -0.93,0.93 2.57,2.57 -2.57,2.57 0.93,0.93 2.57,-2.57 2.57,2.57 0.93,-0.93 -2.57,-2.57 2.57,-2.57 z" style="fill:#fff"/><path id="path3673" d="m 143,102.5 c 0,3.59 2.91,6.5 6.5,6.5 3.59,0 6.5,-2.91 6.5,-6.5 0,-3.59 -2.91,-6.5 -6.5,-6.5 -3.59,0 -6.5,2.91 -6.5,6.5" style="fill:#bebebe"/><path id="path3675" d="m 153,100.43 -0.93,-0.93 -2.57,2.57 -2.57,-2.57 -0.93,0.93 2.57,2.57 -2.57,2.57 0.93,0.93 2.57,-2.57 2.57,2.57 0.93,-0.93 -2.57,-2.57 2.57,-2.57 z" style="fill-opacity:.37000002"/><path id="path3677" d="M 153,99.93 152.07,99 149.5,101.57 146.93,99 146,99.93 l 2.57,2.57 -2.57,2.57 0.93,0.93 2.57,-2.57 2.57,2.57 0.93,-0.93 -2.57,-2.57 2.57,-2.57 z" style="fill:#fff"/><path id="path3679" d="m 160,102.5 c 0,3.59 2.91,6.5 6.5,6.5 3.59,0 6.5,-2.91 6.5,-6.5 0,-3.59 -2.91,-6.5 -6.5,-6.5 -3.59,0 -6.5,2.91 -6.5,6.5" style="fill:#9f9f9f"/><path id="path3681" d="m 170,100.43 -0.93,-0.93 -2.57,2.57 -2.57,-2.57 -0.93,0.93 2.57,2.57 -2.57,2.57 0.93,0.93 2.57,-2.57 2.57,2.57 0.93,-0.93 -2.57,-2.57 2.57,-2.57 z" style="fill-opacity:.36000001"/><path id="path3683" d="M 170,99.93 169.07,99 166.5,101.57 163.93,99 163,99.93 l 2.57,2.57 -2.57,2.57 0.93,0.93 2.57,-2.57 2.57,2.57 0.93,-0.93 -2.57,-2.57 2.57,-2.57 z" style="fill:#fff"/><path id="path3685" d="m 184.5,100.43 -0.93,-0.93 -2.57,2.57 -2.57,-2.57 -0.93,0.93 2.57,2.57 -2.57,2.57 0.93,0.93 2.57,-2.57 2.57,2.57 0.93,-0.93 -2.57,-2.57 2.57,-2.57 z" style="fill-opacity:.23999999"/><path id="path3687" d="M 184.5,99.93 183.57,99 181,101.57 178.43,99 l -0.93,0.93 2.57,2.57 -2.57,2.57 0.93,0.93 2.57,-2.57 2.57,2.57 0.93,-0.93 -2.57,-2.57 2.57,-2.57 z" style="fill:#676767"/><path id="path3689" d="m 131.65,116.21 -1.44,-2.03 -1.21,1.21 2.55,3.61 6.45,-7.67 -1.12,-1.33 z"/><path id="path3691" d="m 195.75,97.75 3.5,3.25 -3.5,3.25" style="fill:none;stroke:#367cf1;stroke-width:1.5"/><path id="path3693" d="m 195.75,108.75 3.5,3.25 -3.5,3.25" style="fill:none;stroke:#939393;stroke-width:1.5"/><path id="path3695" d="m 209,101 c 0,0.55 0.45,1 1,1 0.55,0 1,-0.45 1,-1 0,-0.55 -0.45,-1 -1,-1 -0.55,0 -1,0.45 -1,1" style="fill:#bababa"/><path id="path3697" d="m 208.25,97.75 -3.5,3.25 3.5,3.25" style="fill:none;stroke:#bababa;stroke-width:1.5"/><path id="path3699" d="m 218,96 c -2.76,0 -5,2.24 -5,5 0,2.76 2.24,5 5,5 2.76,0 5,-2.24 5,-5 0,-2.76 -2.24,-5 -5,-5" style="fill:url(#p)"/><path id="path3701" d="m 213.36,101 c 0,2.56 2.08,4.64 4.64,4.64 2.56,0 4.64,-2.08 4.64,-4.64 0,-2.56 -2.08,-4.64 -4.64,-4.64 -2.56,0 -4.64,2.08 -4.64,4.64" style="fill:#eb3941"/><path id="path3703" d="m 216,99 4,4" style="stroke:#fff"/><path id="path3705" d="m 220,99 -4,4" style="stroke:#fff"/><path id="path3707" d="m 203,116 4,-8 4,8 z" style="stroke:#c19600;stroke-width:2;stroke-linejoin:round"/><path id="path3709" d="m 203,116 4,-8 4,8 z" style="fill:#f4bd00;stroke:#f5bd00;stroke-width:1.5;stroke-linejoin:round"/><path id="path3711" d="m 205.75,109.75 2.5,0 0,2.5 -0.5,1.75 -1.5,0 -0.5,-1.75 0,-2.5 m 0,5.25 2.5,0 0,1.25 -2.5,0" style="fill:#ad8601"/><path id="path3713" d="m 206,110 2,0 0,2.25 -0.5,1.75 -1,0 -0.5,-1.75 0,-2.25 m 0,5 2,0 0,1 -2,0" style="fill:#fff"/><path id="path3715" d="m 229,106 c -2.76,0 -5,-2.24 -5,-5 0,-2.76 2.24,-5 5,-5 2.76,0 5,2.24 5,5 0,2.76 -2.24,5 -5,5 z" style="fill:url(#r)"/><path id="path3717" d="m 233.5,101 c 0,2.49 -2.01,4.5 -4.5,4.5 -2.49,0 -4.5,-2.01 -4.5,-4.5 0,-2.49 2.01,-4.5 4.5,-4.5 2.49,0 4.5,2.01 4.5,4.5 z" style="fill:#d00"/><path id="path3719" d="m 229.03,96.53 c 1.97,0 3.56,1.02 3.56,2.28 0,1.26 -1.59,2.28 -3.56,2.28 -1.97,0 -3.56,-1.02 -3.56,-2.28 0,-1.26 1.59,-2.28 3.56,-2.28 z" style="fill:url(#s)"/><path id="path3721" d="m 229.03,105.47 c 1.66,0 3,-0.71 3,-1.59 0,-0.88 -1.34,-1.59 -3,-1.59 -1.66,0 -3,0.71 -3,1.59 0,0.88 1.34,1.59 3,1.59 z" style="fill:url(#t)"/><path id="path3723" d="m 239.95,106 c -2.76,-0.03 -4.98,-2.29 -4.95,-5.05 0.03,-2.76 2.29,-4.98 5.05,-4.95 2.76,0.03 4.98,2.29 4.95,5.05 -0.03,2.76 -2.29,4.98 -5.05,4.95 z" style="fill:url(#u)"/><path id="path3725" d="m 244.5,101.05 c -0.03,2.49 -2.06,4.48 -4.55,4.45 -2.49,-0.03 -4.48,-2.06 -4.45,-4.55 0.03,-2.49 2.06,-4.48 4.55,-4.45 2.49,0.03 4.48,2.06 4.45,4.55 z" style="fill:#00be00"/><path id="path3727" d="m 240.08,96.53 c 1.97,0.02 3.55,1.06 3.54,2.32 -0.01,1.26 -1.62,2.26 -3.59,2.24 -1.97,-0.02 -3.55,-1.06 -3.54,-2.32 0.01,-1.26 1.62,-2.26 3.59,-2.24 z" style="fill:url(#v)"/><path id="path3729" d="m 239.98,105.41 c 1.66,0.02 3.01,-0.68 3.02,-1.56 0.01,-0.88 -1.33,-1.61 -2.98,-1.63 -1.66,-0.02 -3.01,0.68 -3.02,1.56 -0.01,0.88 1.33,1.61 2.98,1.63 z" style="fill:url(#w)"/><path id="path3731" d="m 251,106 c -2.76,0 -5,-2.24 -5,-5 0,-2.76 2.24,-5 5,-5 2.76,0 5,2.24 5,5 0,2.76 -2.24,5 -5,5 z" style="fill:#e5a600"/><path id="path3733" d="m 255.5,101 c 0,2.49 -2.01,4.5 -4.5,4.5 -2.49,0 -4.5,-2.01 -4.5,-4.5 0,-2.49 2.01,-4.5 4.5,-4.5 2.49,0 4.5,2.01 4.5,4.5 z" style="fill:#ffbd00"/><path id="path3735" d="m 251.03,96.53 c 1.97,0 3.56,1.02 3.56,2.28 0,1.26 -1.59,2.28 -3.56,2.28 -1.97,0 -3.56,-1.02 -3.56,-2.28 0,-1.26 1.59,-2.28 3.56,-2.28 z" style="fill:url(#x)"/><path id="path3737" d="m 250.99,105.42 c 1.66,0 3,-0.71 3,-1.59 0,-0.88 -1.34,-1.59 -3,-1.59 -1.66,0 -3,0.71 -3,1.59 0,0.88 1.34,1.59 3,1.59 z" style="fill:url(#y)"/><rect style="fill-opacity:.38000016;stroke:#000;stroke-width:2;stroke-linejoin:round;stroke-miterlimit:0" id="rect3739" width="8" height="12" x="268" y="102" rx=".25" ry=".25"/><path id="path3741" d="m 218,107 c -2.76,0 -5,2.24 -5,5 0,2.76 2.24,5 5,5 2.76,0 5,-2.24 5,-5 0,-2.76 -2.24,-5 -5,-5" style="fill:url(#q)"/><path id="path3743" d="m 213.36,112 c 0,2.56 2.08,4.64 4.64,4.64 2.56,0 4.64,-2.08 4.64,-4.64 0,-2.56 -2.08,-4.64 -4.64,-4.64 -2.56,0 -4.64,2.08 -4.64,4.64" style="fill:#2a53cd"/><path id="path3745" d="m 216.93,109.14 c -0.03,-0.53 0.55,-0.97 1.06,-0.83 0.5,0.12 0.79,0.73 0.56,1.18 -0.2,0.44 -0.79,0.61 -1.2,0.36 -0.26,-0.14 -0.42,-0.42 -0.42,-0.71 z m 1.7,5.46 c 0.22,0 0.45,0 0.67,0 0,0.18 0,0.35 0,0.53 -0.96,0 -1.93,0 -2.89,0 0,-0.18 0,-0.35 0,-0.53 0.22,0 0.44,0 0.66,0 0,-1.2 0,-2.41 0,-3.61 -0.22,0 -0.44,0 -0.66,0 0,-0.18 0,-0.35 0,-0.53 0.74,0 1.48,0 2.22,0 0,1.38 0,2.76 0,4.14 z" style="fill:#fff"/><rect style="fill-opacity:.38000016;stroke:#000;stroke-width:2;stroke-linejoin:round;stroke-miterlimit:0" id="rect3747" width="12" height="8" x="298" y="104" rx=".25" ry=".25"/><path id="path3749" d="m 12.25,125 c -0.68,0 -1.25,0.57 -1.25,1.25 l 0,9.69 2,-3.31 0,-5.63 3.38,0 1.19,-2 -5.31,0 z m 8.75,3.06 -2,3.31 0,5.63 -3.38,0 -1.19,2 5.31,0 c 0.68,0 1.25,-0.57 1.25,-1.25 l 0,-9.69 z" style="stroke-width:2"/><path id="path3751" d="m 10.75,140.75 10.5,-17.5" style="fill:none;stroke:#000;stroke-width:2"/><path id="path3753" d="m 46,128 7,0 0,8 -7,0 0,-8 z m 9,-2 -14,0 0,12 14,0 0,-12 z"/><rect id="rect3755" width="3" height="6" x="73" y="129"/><rect id="rect3757" width="3" height="6" x="77" y="129"/><rect id="rect3759" width="3" height="6" x="81" y="129"/><rect id="rect3761" width="15" height="10" x="71" y="127" rx="1" ry="1" style="fill:none;stroke:#000;stroke-width:2;stroke-linejoin:round"/><path id="path3763" d="m 86,129 c 3,0 3,0 3,3 0,3 0,3 -3,3" style="fill:none;stroke:#000;stroke-width:2"/><path id="path3765" d="m 227.25,107 c -0.7,0 -1.25,0.5 -1.25,1.25 l 0,7.5 c 0,0.7 0.5,1.25 1.25,1.25 l 3.5,0 c 0.7,0 1.25,-0.5 1.25,-1.25 l 0,-7.5 c 0,-0.7 -0.5,-1.25 -1.25,-1.25 l -3.5,0 z m -0.25,1 4,0 0,7 -4,0 0,-7 z m 2,7.25 c 0.4,0 0.75,0.3 0.75,0.75 0,0.4 -0.3,0.75 -0.75,0.75 -0.4,0 -0.75,-0.3 -0.75,-0.75 0,-0.4 0.3,-0.75 0.75,-0.75 z"/><path style="fill:#000;fill-opacity:1;stroke:#000;stroke-width:1;stroke-linecap:butt;stroke-linejoin:miter;stroke-miterlimit:4;stroke-opacity:1;stroke-dasharray:none" id="path3550" d="m 110.49999,127.4989 -1,0 2,-2 2,2 -1,0 c 0,0 -0.0345,4.6379 -0.0345,4.0345 l 4.03448,-0.034 0,-1 2,2 -2,2 0,-1 -4.03449,-0.034 0.0345,4.0346 1,0 -2,2 -2,-2 1,0 0.0345,-4.0346 -4.03448,0.034 0,1 -2,-2 2,-2 0,1 4.03448,0.034 z"/><path style="fill:#000;fill-opacity:1;fill-rule:evenodd;stroke:#000;stroke-width:2.77777767;stroke-linecap:butt;stroke-linejoin:miter;stroke-miterlimit:4;stroke-opacity:1;stroke-dasharray:none" id="path3635" d="m 53,14 a 3,3 0 1 1 -6,0 3,3 0 1 1 6,0 z" transform="matrix(0.36,0,0,0.36,125.49998,127.46)"/><path style="fill:#000;fill-opacity:1;stroke:#000;stroke-width:1;stroke-linecap:butt;stroke-linejoin:miter;stroke-miterlimit:4;stroke-opacity:1;stroke-dasharray:none" id="path4411-7" d="m 143.48385,129.5 2.54033,-2 -1.5242,0 0,-2 -2,0 -0.0161,2 -1.54033,0 z"/><path style="fill:#000;fill-opacity:1;stroke:#000;stroke-width:1;stroke-linecap:butt;stroke-linejoin:miter;stroke-miterlimit:4;stroke-opacity:1;stroke-dasharray:none" id="path4411-7-7" d="m 146.49998,132.5 2,2.5 0,-1.4998 2,-1e-4 0,-2.0002 -2,1e-4 0,-1.5 z"/><path style="fill:#000;fill-opacity:1;stroke:#000;stroke-width:1;stroke-linecap:butt;stroke-linejoin:miter;stroke-miterlimit:4;stroke-opacity:1;stroke-dasharray:none" id="path4411-7-7-3" d="m 143.49998,135.5 -2.5,2 1.5,0 0,2 2,0 0,-2 1.5,0 z"/><path style="fill:#000;fill-opacity:1;stroke:#000;stroke-width:1;stroke-linecap:butt;stroke-linejoin:miter;stroke-miterlimit:4;stroke-opacity:1;stroke-dasharray:none" id="path4411-7-7-3-5" d="m 140.49998,132.5 -2,-2.5 0,1.4999 -2,0 0,2.0002 2,-3e-4 0,1.5002 z"/><path style="fill:#000;fill-opacity:1;stroke:none" id="Rotate" d="m 169.19838,130.1487 c 0.0551,-0.1128 0.15339,-0.22 0.2313,-0.3064 0.54584,-0.6074 1.38893,-1.1974 3.00529,-1.5702 l 0,-2.1715 c -1.29309,0.2523 -2.31462,0.6686 -3.304,1.5597 -0.33248,0.3832 -0.50543,0.6247 -0.514,1.1665 -0.007,0.443 0.17732,0.8863 0.58141,1.3219 z m 6.63093,3.1292 c -1.61635,-0.024 -3.10906,-0.2558 -4.62277,-0.764 -2.69382,-0.9037 -3.02857,-2.1697 -3.17032,-2.5931 -0.0958,1.6897 0.028,2.9573 0.0346,3.0648 0.092,1.5004 1.29179,2.6742 2.15751,3.1151 1.7796,0.9067 3.66137,1.3756 5.60099,1.4151 l 0,2.4842 3.25098,-4.6483 -3.25098,-4.6486 0,2.5748 z m -0.32327,-5.2959 c 1.61636,0.01 3.45286,0.3384 5.2454,1.1131 0.73528,0.3177 1.32751,0.7904 1.80821,1.3048 0.33152,-0.1523 0.80672,-0.7308 0.74126,-1.2923 -0.16163,-1.3879 -1.62637,-2.1912 -1.88014,-2.3045 -1.7704,-0.7908 -3.9751,-1.0356 -5.91473,-1.0589 l 0,-1.7442 -2.01317,2.8787 2.01317,2.8783 0,-1.775 z m 8.42363,1.8658 c -0.0824,0.6478 -0.82676,2.0349 -3.89784,2.9138 l 0,4.5247 c 1.13145,-0.3677 2.46495,-1.2956 3.17873,-2.1988 0.2911,-0.3677 0.46906,-0.875 0.57736,-1.242 0.33216,-1.1229 0.18604,-3.3136 0.14175,-3.9977 z"/><path id="path4" d="M 233,88.08946 V 91 h 2.91054 L 244.1944,82.71614 241.28385,79.8056 233,88.08946 z m 13.76911,-7.9387 c 0.30785,-0.30785 0.30785,-0.79294 0,-1.10079 l -1.81908,-1.81909 c -0.30785,-0.30784 -0.79295,-0.30784 -1.10078,0 l -1.52058,1.52991 2.91054,2.91054 1.5299,-1.52057 z"/><path style="fill:#000;fill-opacity:1;stroke:#000;stroke-width:1.99999976;stroke-linecap:butt;stroke-linejoin:miter;stroke-miterlimit:4.19999981;stroke-opacity:1;stroke-dasharray:none" id="path3963" d="m 107,33 8,0 0,6 -8,0 z"/><g id="g3234"><path style="fill:url(#linearGradient3239)" id="path3699-5" d="m 250,107 c -2.76,0 -5,2.24 -5,5 0,2.76 2.24,5 5,5 2.76,0 5,-2.24 5,-5 0,-2.76 -2.24,-5 -5,-5"/><path id="path3701-0" d="m 245.36,112 c 0,2.56 2.08,4.64 4.64,4.64 2.56,0 4.64,-2.08 4.64,-4.64 0,-2.56 -2.08,-4.64 -4.64,-4.64 -2.56,0 -4.64,2.08 -4.64,4.64" style="fill:#f4979b;fill-opacity:1"/><path style="fill:#fff;fill-opacity:1" id="path3689-2" d="m 248.64912,113.55532 -1.12,-1.57887 -0.94113,0.9411 1.98332,2.80777 5.01668,-5.96555 -0.8711,-1.03445 z"/></g><g id="Animations-Toggle" transform="translate(199.99866,124.00442)"><path id="path3453" d="M 6,2 12,8 6,14 0,8"/><path id="path3455" d="M 8.5,12.5 10,14 16,8 10,2 8.5,3.5 13,8 8.5,12.5 z" style="opacity:.5"/></g><path id="path3509-0" d="m 240.76701,127 -1.53402,0 0,4.23299 -4.23299,0 0,1.53402 4.23299,0 0,4.23299 1.53402,0 0,-4.23299 4.23299,0 0,-1.53402 -4.23299,0 0,-4.23299 z"/><path style="fill:none" id="path3712" d="m 228.56466,156.76923 h 48 v 48 h -48 z"/><path id="path3714" d="m 310.7696,127.0439 -1.81599,-1.81636 c -0.30331,-0.30338 -0.79716,-0.30338 -1.10048,0 l -2.43038,2.43089 -1.48935,-1.49354 -1.10047,1.1007 1.10437,1.1046 L 297,135.30504 V 139 h 3.69419 l 6.9373,-6.93874 1.10048,1.1046 1.10048,-1.10072 -1.49324,-1.49353 2.43039,-2.43089 c 0.3072,-0.30338 0.3072,-0.79345 0,-1.09682 z m -10.72092,10.40033 -1.49324,-1.49354 6.27235,-6.27365 1.49323,1.49354 -6.27234,6.27365 z"/><g id="Page-1" transform="translate(328,28)" style="fill:none;stroke:none"><g id="Replay" style="fill:#000"><path id="Shape" d="M 2.5858334,13.890843 C 0.99596482,12.428959 0,10.331325 0,8 0,3.58 3.58,0 8,0 c 4.42,0 8,3.58 8,8 0,4.42 -3.58,8 -8,8 l 0,-1.6 0,0 c 3.528,0 6.4,-2.872 6.4,-6.4 C 14.4,4.472 11.528,1.6 8,1.6 4.472,1.6 1.6,4.472 1.6,8 c 0,1.9357374 0.8646098,3.673987 2.2277938,4.848714 L 5.520254,11.428571 5.5353988,15.891545 1.1428571,15.101644 2.5858334,13.890843 z M 6.5066666,11.428571 11.078095,8 6.5066666,4.5714286 l 0,6.8571424 z"/></g></g><path id="path3214" d="m 276,127 1,-1 0,-1 -8,0 0,1 1,1 0,5 -2,1 0,2 4,0 -0.0447,3.9835 L 273,140 l 1,-1 0,-4 4,0 0,-2 -2,-1 0,-5 z" style="fill:#010101"/><path id="path3216" d="M 0,24 H 24 V 48 H 0 z" style="fill:none"/><path id="Icon" d="m 328,60 c 0,4.42 3.58,8 8,8 4.42,0 8,-3.58 8,-8 0,-4.42 -3.58,-8 -8,-8 -4.42,0 -8,3.58 -8,8 z m 8,6.4 c -3.528,0 -6.4,-2.872 -6.4,-6.4 0,-3.528 2.872,-6.4 6.4,-6.4 3.528,0 6.4,2.872 6.4,6.4 0,3.528 -2.872,6.4 -6.4,6.4 z M 334.50667,63.428571 339.0781,60 l -4.57143,-3.428571 0,6.857142 z"/><path id="path3448" d="m 333.6,15.2 1.6,0 0,-6.4 -1.6,0 0,6.4 0,0 z M 336,4 c -4.42,0 -8,3.58 -8,8 0,4.42 3.58,8 8,8 4.42,0 8,-3.58 8,-8 0,-4.42 -3.58,-8 -8,-8 l 0,0 z m 0,14.4 c -3.528,0 -6.4,-2.872 -6.4,-6.4 0,-3.528 2.872,-6.4 6.4,-6.4 3.528,0 6.4,2.872 6.4,6.4 0,3.528 -2.872,6.4 -6.4,6.4 l 0,0 z m 0.8,-3.2 1.6,0 0,-6.4 -1.6,0 0,6.4 0,0 z"/><path id="path3871" d="m 115,36 4,-4 0,8"/><path id="path3510" d="M 0,24 H 24 V 48 H 0 z m 0,0 H 24 V 48 H 0 z m 0,0 H 24 V 48 H 0 z m 0,0 H 24 V 48 H 0 z" style="fill:none"/><path id="path3512" d="m 208.00365,8.385948 c 2.00818,0 3.63802,1.629832 3.63802,3.638017 0,0.472943 -0.0946,0.916781 -0.26194,1.331515 l 2.1246,2.124602 c 1.09868,-0.91678 1.96453,-2.102774 2.49568,-3.456117 -1.25875,-3.194178 -4.36562,-5.457025 -8.00364,-5.457025 -1.01864,0 -1.99363,0.181901 -2.89586,0.509322 l 1.57162,1.571624 c 0.41474,-0.167349 0.85858,-0.261938 1.33152,-0.261938 z m -7.27604,-1.986357 1.65894,1.658936 0.3347,0.334697 c -1.20782,0.938609 -2.15371,2.190087 -2.72124,3.630741 1.25875,3.19418 4.36562,5.457026 8.00364,5.457026 1.12778,0 2.20464,-0.218281 3.1869,-0.611187 l 0.30559,0.305594 2.13188,2.124602 0.92406,-0.924056 -12.90041,-12.90041 -0.92406,0.924057 z m 4.02365,4.023647 1.12779,1.127785 c -0.0364,0.152797 -0.0582,0.31287 -0.0582,0.472942 0,1.207822 0.97499,2.182811 2.18281,2.182811 0.16007,0 0.32014,-0.02183 0.47294,-0.05821 l 1.12779,1.127785 c -0.4875,0.240109 -1.02593,0.38563 -1.60073,0.38563 -2.00819,0 -3.63802,-1.629832 -3.63802,-3.638018 0,-0.574806 0.14552,-1.113233 0.38563,-1.600727 z m 3.13597,-0.567531 2.29195,2.291951 0.0145,-0.116417 c 0,-1.207821 -0.97498,-2.18281 -2.18281,-2.18281 l -0.12369,0.0073 z"/><path id="path3223" d="M 0,24 H 24 V 48 H 0 z" style="fill:none"/><path id="path3225" d="m 111.99999,6.690909 c -3.63635,0 -6.74181,2.261818 -7.99999,5.454546 1.25818,3.192727 4.36364,5.454545 7.99999,5.454545 3.63636,0 6.74182,-2.261818 8,-5.454545 -1.25818,-3.192728 -4.36364,-5.454546 -8,-5.454546 z m 0,9.090909 c -2.00726,0 -3.63635,-1.629091 -3.63635,-3.636363 0,-2.007273 1.62909,-3.636364 3.63635,-3.636364 2.00727,0 3.63636,1.629091 3.63636,3.636364 0,2.007272 -1.62909,3.636363 -3.63636,3.636363 z m 0,-5.818182 c -1.20726,0 -2.18181,0.974546 -2.18181,2.181819 0,1.207272 0.97455,2.181818 2.18181,2.181818 1.20727,0 2.18182,-0.974546 2.18182,-2.181818 0,-1.207273 -0.97455,-2.181819 -2.18182,-2.181819 z"/><path id="path3224" d="M 0,24 H 24 V 48 H 0 z" style="fill:none"/><path id="path3226" d="m 338.33036,76.32322 h -4.57143 v 1.52381 h 4.57143 v -1.52381 z m -3.04762,9.90477 h 1.52381 v -4.57143 h -1.52381 v 4.57143 z m 6.11809,-5.03619 1.08191,-1.08191 c -0.32762,-0.38857 -0.68572,-0.75428 -1.07429,-1.07428 l -1.0819,1.0819 c -1.18095,-0.94476 -2.66667,-1.50857 -4.28191,-1.50857 -3.78667,0 -6.85714,3.07047 -6.85714,6.85714 0,3.78667 3.06285,6.85714 6.85714,6.85714 3.79429,0 6.85715,-3.07047 6.85715,-6.85714 0,-1.61524 -0.56382,-3.10095 -1.50096,-4.27428 z m -5.35619,9.60761 c -2.94857,0 -5.33333,-2.38476 -5.33333,-5.33333 0,-2.94857 2.38476,-5.33333 5.33333,-5.33333 2.94857,0 5.33333,2.38476 5.33333,5.33333 0,2.94857 -2.38476,5.33333 -5.33333,5.33333 z"/><path id="path3227" d="m 334,114 10,0 0,-5 -10,0 z m -6,0 5,0 0,-12 -5,0 z m 6,-12 0,6 10,0 0,-6 z"/><path id="path3229" d="M 0,24 H 24 V 48 H 0 z" style="fill:none"/><path style="fill:#000;fill-opacity:1;fill-rule:evenodd;stroke:none" id="path3518" d="m 209.92234,31.304852 a 1.0606602,1.0606602 0 1 1 -2.12132,0 1.0606602,1.0606602 0 1 1 2.12132,0 z" transform="matrix(1.4142135,0,0,1.4142135,-86.874996,-12.771743)"/><path id="path4288" d="m 209.92234,31.304852 a 1.0606602,1.0606602 0 1 1 -2.12132,0 1.0606602,1.0606602 0 1 1 2.12132,0 z" transform="matrix(1.4142135,0,0,1.4142135,-86.874986,-7.771742)" style="fill:#000;fill-opacity:1;fill-rule:evenodd;stroke:none"/><path style="fill:#000;fill-opacity:1;fill-rule:evenodd;stroke:none" id="path4290" d="m 209.92234,31.304852 a 1.0606602,1.0606602 0 1 1 -2.12132,0 1.0606602,1.0606602 0 1 1 2.12132,0 z" transform="matrix(1.4142135,0,0,1.4142135,-86.874986,-2.771743)"/><path id="path3246" d="M 86,38 83.277778,35 72,35 l 0,6 11.277778,0"/><rect style="fill:#000;fill-opacity:1;stroke:#000;stroke-width:.94679004;stroke-miterlimit:3.5;stroke-opacity:1;stroke-dasharray:none" id="rect4034" width="4.053" height=".053" x="85.473" y="32.473"/><rect id="rect4036" width=".053" height="4.053" x="87.473" y="30.473" style="fill:#000;fill-opacity:1;stroke:#000;stroke-width:.94679004;stroke-miterlimit:3.5;stroke-opacity:1;stroke-dasharray:none"/><path id="inspect_element" d="m 335,138 -3.66666,0 C 330.59667,138 330,137.40333 330,136.66667 l 0,-9.33334 C 330,126.59667 330.59667,126 331.33334,126 l 9.33333,0 c 0.73667,0 1.33333,0.59667 1.33333,1.33333 l 0,3.66667 -2,-0.6 0,-2.4 -8,-3.4e-4 0,8.00017 2.22223,3.4e-4 z m 5.25657,-2.70598 2.40637,-2.40638 L 334,130 l 2.88765,8.66294 2.40637,-2.40638 L 343.03746,140 344,139.03745 z"/><path id="device-mode" d="M 178.71429,5.0064 172.28571,5 C 171.57857,5 171,5.572727 171,6.272727 l 0,11.454546 c 0,0.7 0.57857,1.272727 1.28571,1.272727 l 6.42858,0 C 179.42143,19 180,18.427273 180,17.727273 l 0,-11.454546 c 0,-0.7 -0.57857,-1.266363 -1.28571,-1.266363 l 0,0 z m 0,11.448182 -6.42858,0 0,-8.909091 6.42858,0 0,8.909091 0,0 z"/><path id="path3288" d="m 23,157 -2,0 0,2 2,0 z"/><path id="path3286" d="m 23,161 -2,0 0,2 c 1,0 2,-1 2,-2 z"/><path id="path3284" d="m 23,153 -2,0 0,2 2,0 z"/><path id="path3282" d="m 21,149 0,2 2,0 c 0,-1 -1,-2 -2,-2 z"/><path id="path3280" d="m 11,163 4,0 0,-6 -6,0 0,4 c 0,1.1 0.9,2 2,2 z"/><path id="path3278" d="m 11,153 -2,0 0,2 2,0 z"/><path id="path3276" d="m 19,149 -2,0 0,2 2,0 z"/><path id="path3274" d="m 19,161 -2,0 0,2 2,0 z"/><path id="path3272" d="m 11,149 c -1,0 -2,1 -2,2 l 2,0 z"/><path id="path3231" d="m 15,149 -2,0 0,2 2,0 z"/><g id="g4042"><path id="path4006" d="m 80.87534,155.38257 a 4.3973203,4.6182914 0 1 1 -8.794641,0 4.3973203,4.6182914 0 1 1 8.794641,0 z" transform="matrix(1.1939089,0,0,1.1367841,-44.307792,-20.636427)" style="fill:none;stroke:#000;stroke-width:1.2875576;stroke-miterlimit:4;stroke-opacity:1;stroke-dasharray:none"/><rect id="rect4010" width="6" height="2" x="44" y="155" rx=".386" ry="0" style="fill:#000;fill-opacity:1;stroke:none"/></g><path id="path3240" d="M 76.94,152 76,152.94 79.05334,156 76,159.06 l 0.94,0.94 4,-4 z"/><path id="path3242" fill="none" d="M0 0h24v24H0z"/><path id="path3240-4" d="M 80.94,152 80,152.94 83.05334,156 80,159.06 l 0.94,0.94 4,-4 z"/></svg>